<svg width="86" height="68" viewBox="0 0 86 68" fill="none" xmlns="http://www.w3.org/2000/svg">
<path d="M10.255 47.7648C4.73 47.7648 0.25 52.2398 0.25 57.7548C0.25 63.2698 4.73 67.7448 10.255 67.7448H60.285V47.7598H10.255V47.7648Z" fill="#EA4335"/>
<path d="M10.255 62.7555C13.0192 62.7555 15.26 60.5191 15.26 57.7605C15.26 55.0018 13.0192 52.7655 10.255 52.7655C7.49081 52.7655 5.25 55.0018 5.25 57.7605C5.25 60.5191 7.49081 62.7555 10.255 62.7555Z" fill="white"/>
<path d="M25.69 20.3102C21.22 17.0652 14.96 18.0552 11.715 22.5202C8.465 26.9852 9.46 33.2352 13.93 36.4752L54.405 65.8402L66.17 49.6752L25.69 20.3102Z" fill="#FBBC04"/>
<path d="M19.8099 33.3903C22.5741 33.3903 24.8149 31.154 24.8149 28.3953C24.8149 25.6366 22.5741 23.4003 19.8099 23.4003C17.0458 23.4003 14.8049 25.6366 14.8049 28.3953C14.8049 31.154 17.0458 33.3903 19.8099 33.3903Z" fill="white"/>
<path d="M54.34 7.1549C52.63 1.9049 46.99 -0.965105 41.73 0.739896C36.475 2.4449 33.6 8.0849 35.305 13.3299L50.765 60.8399L69.795 54.6649L54.34 7.1549Z" fill="#34A853"/>
<path d="M44.82 15.24C47.5841 15.24 49.825 13.0037 49.825 10.245C49.825 7.48634 47.5841 5.25 44.82 5.25C42.0558 5.25 39.815 7.48634 39.815 10.245C39.815 13.0037 42.0558 15.24 44.82 15.24Z" fill="white"/>
<path d="M78.8351 0.739896C73.5801 -0.965104 67.9351 1.9049 66.2251 7.1549L50.7651 54.6649C49.0551 59.9149 51.9351 65.5499 57.1901 67.2549C62.4451 68.9599 68.0901 66.0899 69.8001 60.8399L85.2601 13.3299C86.9651 8.0849 84.0901 2.4449 78.8351 0.739896Z" fill="#4285F4"/>
<path d="M75.7403 15.24C78.5044 15.24 80.7453 13.0037 80.7453 10.245C80.7453 7.48634 78.5044 5.25 75.7403 5.25C72.9761 5.25 70.7353 7.48634 70.7353 10.245C70.7353 13.0037 72.9761 15.24 75.7403 15.24Z" fill="white"/>
<path d="M60.2803 62.7498C63.0445 62.7498 65.2853 60.5135 65.2853 57.7548C65.2853 54.9962 63.0445 52.7598 60.2803 52.7598C57.5161 52.7598 55.2753 54.9962 55.2753 57.7548C55.2753 60.5135 57.5161 62.7498 60.2803 62.7498Z" fill="white"/>
</svg>
